# Blender 3.6.4
# www.blender.org
mtllib house1.mtl
o Cube
v 1.000000 2.000979 -1.000000
v 1.000000 0.000979 -1.000000
v 1.000000 2.000979 1.000000
v 1.000000 0.000979 1.000000
v -1.000000 2.000979 -1.000000
v -1.000000 0.000979 -1.000000
v -1.000000 2.000979 1.000000
v -1.000000 0.000979 1.000000
v -1.000000 0.000979 0.000000
v 1.000000 2.706848 0.000000
v -1.000000 2.706848 0.000000
v 1.000000 0.000979 0.000000
vn -0.0000 0.8170 0.5767
vn -0.0000 -0.0000 1.0000
vn -1.0000 -0.0000 -0.0000
vn -0.0000 -1.0000 -0.0000
vn 1.0000 -0.0000 -0.0000
vn -0.0000 -0.0000 -1.0000
vn -0.0000 0.8170 -0.5767
vt 0.875000 0.625000
vt 0.625000 0.750000
vt 0.625000 0.625000
vt 0.375000 1.000000
vt 0.375000 0.750000
vt 0.375000 0.125000
vt 0.625000 0.250000
vt 0.375000 0.250000
vt 0.375000 0.625000
vt 0.125000 0.750000
vt 0.125000 0.625000
vt 0.375000 0.500000
vt 0.625000 0.500000
vt 0.125000 0.500000
vt 0.625000 0.000000
vt 0.375000 0.000000
vt 0.875000 0.500000
vt 0.875000 0.750000
vt 0.625000 1.000000
vt 0.625000 0.125000
s 0
usemtl Material
f 11/1/1 3/2/1 10/3/1
f 3/2/2 8/4/2 4/5/2
f 9/6/3 5/7/3 6/8/3
f 12/9/4 8/10/4 9/11/4
f 12/9/5 3/2/5 4/5/5
f 5/7/6 2/12/6 6/8/6
f 1/13/5 12/9/5 2/12/5
f 2/12/4 9/11/4 6/14/4
f 7/15/3 9/6/3 8/16/3
f 5/17/7 10/3/7 1/13/7
f 11/1/1 7/18/1 3/2/1
f 3/2/2 7/19/2 8/4/2
f 9/6/3 11/20/3 5/7/3
f 12/9/4 4/5/4 8/10/4
f 12/9/5 10/3/5 3/2/5
f 5/7/6 1/13/6 2/12/6
f 1/13/5 10/3/5 12/9/5
f 2/12/4 12/9/4 9/11/4
f 7/15/3 11/20/3 9/6/3
f 5/17/7 11/1/7 10/3/7
o ceil
v -1.241642 1.560876 1.584304
v -1.241642 1.632165 1.635233
v -1.241642 2.723463 0.000000
v -1.241642 2.794753 0.000000
v 1.241642 1.560876 1.584304
v 1.241642 1.632165 1.635233
v 1.241642 2.723463 0.000000
v 1.241642 2.794753 0.000000
v -1.241642 1.560876 -1.584304
v -1.241642 1.632165 -1.635233
v 1.241642 1.560876 -1.584304
v 1.241642 1.632165 -1.635233
vn -1.0000 -0.0000 -0.0000
vn -0.0000 -0.0000 -1.0000
vn 1.0000 -0.0000 -0.0000
vn -0.0000 -0.5813 0.8137
vn -0.0000 -0.8062 -0.5916
vn -0.0000 0.8150 0.5794
vn -0.0000 -0.5813 -0.8137
vn -0.0000 -0.8062 0.5916
vn -0.0000 0.8150 -0.5794
vt 0.625000 0.000000
vt 0.375000 0.250000
vt 0.375000 0.000000
vt 0.625000 0.250000
vt 0.375000 0.500000
vt 0.625000 0.750000
vt 0.375000 0.750000
vt 0.375000 1.000000
vt 0.125000 0.750000
vt 0.125000 0.500000
vt 0.875000 0.500000
vt 0.625000 0.500000
vt 0.625000 1.000000
vt 0.875000 0.750000
s 0
usemtl Material.001
f 14/21/8 15/22/8 13/23/8
f 16/24/9 19/25/9 15/22/9
f 19/25/10 18/26/10 17/27/10
f 18/26/11 13/28/11 17/27/11
f 19/25/12 13/29/12 15/30/12
f 16/31/13 18/26/13 20/32/13
f 15/22/8 22/21/8 21/23/8
f 19/25/10 24/26/10 20/32/10
f 21/28/14 24/26/14 23/27/14
f 21/29/15 19/25/15 15/30/15
f 24/26/16 16/31/16 20/32/16
f 14/21/8 16/24/8 15/22/8
f 16/24/9 20/32/9 19/25/9
f 19/25/10 20/32/10 18/26/10
f 18/26/11 14/33/11 13/28/11
f 19/25/12 17/27/12 13/29/12
f 16/31/13 14/34/13 18/26/13
f 15/22/8 16/24/8 22/21/8
f 19/25/10 23/27/10 24/26/10
f 21/28/14 22/33/14 24/26/14
f 21/29/15 23/27/15 19/25/15
f 24/26/16 22/34/16 16/31/16
